<?xml version="1.0" encoding="UTF-8"?>
<svg id="Ebene_1" data-name="Ebene 1" xmlns="http://www.w3.org/2000/svg" viewBox="0 0 503.26 88.26">
  <defs>
    <style>
      .cls-1 {
        fill: #f58466;
      }

      .cls-2 {
        fill: #fff;
      }
    </style>
  </defs>
  <g>
    <path class="cls-2" d="M116.58,58.03c6.98-.09,11.72-1.08,15.47-7.92l.54,.36c-.98,2.43-2.77,6.57-4.65,8.82l-21.11-.27c-3.58-.09-6.62,.09-10.2,.27v-.72c6.44-.18,6.71-.72,6.89-2.61,.54-5.49,.54-15.48,.54-19.89s0-13.59-.54-19.07c-.18-1.89-.45-2.43-6.89-2.61v-.72c3.58,.18,6.62,.27,10.2,.27s6.62-.09,10.2-.27v.72c-6.44,.18-6.71,.72-6.89,2.61-.54,5.49-.54,14.67-.54,19.07s0,14.4,.54,19.89c.36,2.07,1.07,2.07,6.44,2.07Z"/>
    <path class="cls-2" d="M169.5,13.49c12.88,0,22.81,10.44,22.81,23.4s-9.93,23.31-22.81,23.31-22.72-10.34-22.72-23.31,9.84-23.4,22.72-23.4Zm1.07,45.8c11.09-.54,15.56-13.86,15.02-23.22-.54-9.36-6.08-22.22-17.17-21.69-11.09,.54-15.47,13.95-14.94,23.31,.54,9.36,5.99,22.14,17.08,21.59Z"/>
    <path class="cls-2" d="M213.78,58.57c6.44-.18,6.7-.72,6.89-2.61,.54-5.49,.54-14.58,.54-18.99s0-14.04-.54-19.53c-.18-1.89-.45-2.43-6.89-2.61v-.72c3.58,.18,6.62,.27,10.2,.27,3.31,0,6.08-.18,8.41-.18,8.68,0,12.52,4.68,12.52,10.71,0,5.58-5.19,9.36-7.51,10.08,4.38,.63,11.27,4.41,11.27,11.87,0,7.02-4.03,12.51-15.56,12.51-3.22,0-5.19-.36-9.12-.36-3.58,0-6.62,.09-10.2,.27v-.72Zm16.37-43.46c-.54,0-2.32,0-2.95,.09-.27,4.86-.36,10.35-.45,20.07l5.99-.09c3.31-.09,6.26-3.06,6.26-9,0-4.41-1.43-11.07-8.86-11.07Zm12.16,32.67c0-8.37-5.37-11.61-9.57-11.61h-5.99c.09,9.81,.09,20.7,.89,21.5,.72,.72,3.22,.81,5.81,.81,4.56,0,8.86-3.33,8.86-10.71Z"/>
    <path class="cls-2" d="M278.13,19.52c-2.59-3.6-2.86-4.32-7.42-4.5v-.72s5.55,.27,8.14,.27c2.32,0,4.2-.36,4.2-.36,1.34,4.68,10.82,25.02,16.01,36.27-.18,0,13.6-29.79,14.31-36.18l5.01,.18c2.59,0,6.71-.36,6.71-.36v.72c-5.55,.36-5.55,.72-5.64,2.61-.36,5.49-.27,15.12-.18,19.53,0,4.41,.18,13.5,.8,18.99,.27,1.89,.27,2.43,6.71,2.61v.72c-3.58-.18-6.35-.27-9.93-.27s-6.35,.09-9.93,.27v-.72c6.44-.18,6.44-.72,6.53-2.61,.36-5.49,.27-14.58,.27-18.99,0-3.06-.09-11.16-.45-16.2l-16.9,38.06h-.36c-5.81-14.22-13.41-30.14-17.08-37.61,.18,14.31-.09,29.52,.54,34.73,.27,2.34,.89,2.43,5.63,2.61v.72c-2.5-.18-3.49-.27-7.07-.27s-4.11,.09-6.98,.27v-.72c4.74-.18,5.37-.45,5.82-2.61,.98-4.59,1.07-16.92,1.25-36.44Z"/>
    <path class="cls-2" d="M347.86,58.57c6.44-.18,6.71-.72,6.89-2.61,.53-5.49,.53-14.58,.53-18.99s0-14.04-.53-19.53c-.18-1.89-.45-2.43-6.89-2.61v-.72c3.58,.18,6.62,.27,10.2,.27,5.46,0,14.05-.09,18.7-.45l.17,9.72h-.71c-.36-5.85-.8-8.28-6.08-8.37l-9.13-.09c-.17,5.04-.26,14.85-.17,20.25,1.34,0,6.89,0,11.19-.27,2.68-.18,2.77-1.89,2.95-5.31h.71s-.26,3.78-.26,6.57c-.09,2.79,.09,7.56,.09,7.56h-.72c.09-5.76-.44-7.29-3.66-7.47-4.3-.27-10.29-.18-10.29-.18,0,4.41,0,14.13,.53,19.62,.36,2.07,1.07,2.07,6.44,2.07,6.98-.09,11.71-.18,15.47-7.02l.54,.36c-.98,2.43-2.78,5.67-4.65,7.92l-21.11-.27c-3.57,0-6.62,.09-10.2,.27v-.72Z"/>
    <path class="cls-2" d="M402.79,16.1c-.63-.72-1.34-.9-5.1-1.08v-.72l8.58,.27,8.76-.27v.72c-3.4,.09-4.82,.09-4.82,1.08,0,1.62,11.18,19.89,12.61,21.95,.98-1.8,10.38-19.26,10.38-21.6,0-1.35-2.51-1.35-5.46-1.44l.08-.72,7.34,.27,5.28-.27v.72c-4.11,0-4.56,.72-17.17,24.2-.18,3.06-.18,11.25,.35,16.74,.18,1.89,.45,2.43,6.89,2.61v.72c-3.58-.18-6.62-.27-10.2-.27s-6.62,.09-10.19,.27v-.72c6.44-.18,6.71-.72,6.88-2.61,.54-5.49,.54-11.07,.54-15.48-1.08-2.43-11.45-20.52-14.76-24.38Z"/>
    <path class="cls-2" d="M455.6,14.12s6.7,.27,10.1,.27c2.42,0,5.81-.18,8.59-.18,9.57,0,13.86,5.49,13.86,12.42,0,5.49-3.84,10.53-10.02,12.06,3.58,.9,17.18,20.16,22.36,20.16,2.24,0,2.77-.27,2.77-.27l-.09,.72s-1.52,.63-7.51,.63c-3.75,0-5.28-.63-7.78-3.24-4.2-4.32-13.69-16.92-15.47-16.92h-3.85c0,4.41,0,10.71,.54,16.2,.18,1.89,.45,2.43,6.89,2.61v.72c-3.58-.18-6.62-.27-10.2-.27s-6.62,.09-10.19,.27v-.72c6.43-.18,6.7-.72,6.88-2.61,.54-5.49,.63-14.58,.63-18.99s-.09-14.04-.63-19.53c-.18-1.89-.45-2.43-6.88-2.61v-.72Zm17.8,24.75c5.63-.18,8.85-4.23,8.85-11.52,0-4.86-2.06-12.24-10.37-12.24-.81,0-1.79,0-2.87,.09,0,0-.45,12.96-.45,23.67h4.84Z"/>
  </g>
  <g>
    <path class="cls-2" d="M14.81,82.45l.37-.66h1.39v6.36h-.71v-5.7h-1.05Z"/>
    <path class="cls-2" d="M28.27,83.45c0,.55-.29,1.11-.78,1.39,.6,.27,.94,.88,.94,1.52,0,1.09-.84,1.89-1.94,1.89s-1.94-.79-1.94-1.89c0-.65,.34-1.26,.94-1.52-.49-.28-.78-.84-.78-1.39,0-1.02,.78-1.77,1.78-1.77s1.78,.75,1.78,1.77Zm-3.01,2.92c0,.68,.54,1.22,1.23,1.22s1.23-.54,1.23-1.22-.54-1.22-1.23-1.22-1.23,.55-1.23,1.22Zm.13-2.94c0,.61,.5,1.11,1.1,1.11s1.1-.5,1.1-1.11-.5-1.1-1.1-1.1-1.1,.49-1.1,1.1Z"/>
    <path class="cls-2" d="M38.78,87.49v.66h-4.12l2.98-3.52c.25-.3,.43-.65,.43-1.06,0-.71-.57-1.23-1.27-1.23-.77,0-1.26,.56-1.28,1.31h-.71c.03-1.11,.84-1.96,1.97-1.96,1.06,0,2,.77,2,1.88,0,.51-.15,.96-.48,1.34l-2.2,2.59h2.68Z"/>
    <path class="cls-2" d="M47.02,84.48c.67-.03,1.26-.23,1.26-1.03,0-.67-.45-1.11-1.11-1.11s-.99,.42-1.05,1.02h-.7c.1-1.01,.72-1.68,1.76-1.68s1.8,.69,1.8,1.74c0,.56-.3,1.12-.82,1.39,.62,.28,.91,.91,.91,1.56,0,1.11-.89,1.89-1.97,1.89-1.03,0-1.87-.7-1.89-1.76h.69c.03,.65,.58,1.1,1.22,1.1,.71,0,1.24-.57,1.24-1.27,0-.81-.57-1.21-1.35-1.19v-.66Z"/>
  </g>
  <path class="cls-1" d="M55.46,51.6c5.37,0,9.73-4.37,9.73-9.73,0-3.18-1.54-6-3.9-7.78,2.36-1.78,3.9-4.59,3.9-7.77,0-5.37-4.37-9.73-9.73-9.73h-5.59V4.24h-3.92v12.35h-11.63V0h-3.92V16.59h-11.63V4.24h-3.92v12.35H4.18v3.92H14.86v11.63H4.18v3.92H14.86v11.63H4.18v3.92H14.86v9.78H0v3.92H18.78v-13.7h11.63v20.16h3.92v-20.16h11.63v13.7h18.78v-3.92h-14.87v-9.78h5.59Zm5.82-9.73c0,3.21-2.61,5.81-5.82,5.81h-5.59v-11.63h5.59c3.21,0,5.81,2.61,5.81,5.81Zm-5.82-21.36c1.55,0,3.01,.61,4.11,1.7,1.1,1.1,1.7,2.56,1.7,4.11,0,3.2-2.61,5.81-5.81,5.82,0,0,0,0,0,0h0s-5.59,0-5.59,0v-11.63h5.59Zm-9.5,0v11.63h-11.63v-11.63h11.63Zm-27.18,0h11.63v11.63h-11.63v-11.63Zm0,27.18v-11.63h11.63v11.63h-11.63Zm15.55,0v-11.63h11.63v11.63h-11.63Z"/>
</svg>